<svg xmlns="http://www.w3.org/2000/svg" version="1.1" xmlns:xlink="http://www.w3.org/1999/xlink" xmlns:svgjs="http://svgjs.com/svgjs" width="512" height="512" x="0" y="0" viewBox="0 0 512 512" style="enable-background:new 0 0 512 512" xml:space="preserve" class=""><g><circle cx="256" cy="256" r="256" fill="#2196f3" data-original="#2196f3" class=""></circle><path fill="#ffffff" fill-rule="evenodd" d="M256 324.817a66.12 66.12 0 1 0-66.121-66.117A66.195 66.195 0 0 0 256 324.817zm0-154.654a88.534 88.534 0 1 1-88.531 88.537A88.636 88.636 0 0 1 256 170.163zm162.5 196.308a15.421 15.421 0 0 1-15.41 15.411H108.911A15.424 15.424 0 0 1 93.5 366.471V171.286a15.424 15.424 0 0 1 15.41-15.412h74.7a5.6 5.6 0 0 0 5.232-3.6l16.045-41.92h102.225l16.048 41.92a5.585 5.585 0 0 0 5.229 3.6h74.7a15.426 15.426 0 0 1 15.41 15.412z" data-original="#ffffff" class=""></path></g></svg>